<?xml version="1.0" encoding="iso-8859-1"?>
<!-- Generator: Adobe Illustrator 19.0.0, SVG Export Plug-In . SVG Version: 6.00 Build 0)  -->
<svg version="1.1" id="Capa_1" xmlns="http://www.w3.org/2000/svg" xmlns:xlink="http://www.w3.org/1999/xlink" x="0px" y="0px"
	 viewBox="0 0 480 480" style="enable-background:new 0 0 480 480;" xml:space="preserve">
<g>
	<g>
		<path d="M419.995,216h-208V46.528c12.473-4.393,19.023-18.066,14.629-30.539C223.244,6.393,214.169-0.019,203.995,0h-160
			C30.771-0.025,20.03,10.675,20.005,23.899c-0.019,10.174,6.393,19.249,15.989,22.629V240c0,13.255,10.745,24,24,24h24v72
			c0.044,39.746,32.254,71.956,72,72v64c0,4.418,3.582,8,8,8h144c4.418,0,8-3.582,8-8v-64.408
			c71.8-4.259,127.881-63.666,128-135.592v-8h8c4.418,0,8-3.582,8-8C459.968,233.92,442.075,216.026,419.995,216z M35.995,24
			c0-4.418,3.582-8,8-8h160c4.418,0,8,3.582,8,8s-3.582,8-8,8h-160C39.576,32,35.995,28.418,35.995,24z M59.995,248
			c-4.418,0-8-3.582-8-8V48h144v200H59.995z M299.995,464h-128v-56h128V464z M427.995,272c-0.075,66.243-53.757,119.925-120,120
			h-152c-30.911-0.04-55.96-25.089-56-56v-72h328V272z M211.995,248v-16h208c10.168,0.012,19.229,6.418,22.632,16H211.995z"/>
	</g>
</g>
<g>
</g>
<g>
</g>
<g>
</g>
<g>
</g>
<g>
</g>
<g>
</g>
<g>
</g>
<g>
</g>
<g>
</g>
<g>
</g>
<g>
</g>
<g>
</g>
<g>
</g>
<g>
</g>
<g>
</g>
</svg>
